<svg width="48" height="48" viewBox="0 0 48 48" fill="none" xmlns="http://www.w3.org/2000/svg">
<path d="M24 40.32C14.976 40.32 7.68 33.024 7.68 24C7.68 14.976 14.976 7.68 24 7.68C33.024 7.68 40.32 14.976 40.32 24C40.32 33.024 33.024 40.32 24 40.32ZM24 9.6C16.032 9.6 9.6 16.032 9.6 24C9.6 31.968 16.032 38.4 24 38.4C31.968 38.4 38.4 31.968 38.4 24C38.4 16.032 31.968 9.6 24 9.6Z" fill="black"/>
<path d="M24.288 33.312L14.976 24L24.288 14.688L25.632 16.032L17.664 24L25.632 31.968L24.288 33.312Z" fill="black"/>
<path d="M16.32 23.04H32.64V24.96H16.32V23.04Z" fill="black"/>
</svg>
