<svg width="34" height="34" viewBox="0 0 34 34" fill="none" xmlns="http://www.w3.org/2000/svg">
<path d="M24.0833 25.5C24.8348 25.5 25.5554 25.7985 26.0868 26.3299C26.6181 26.8612 26.9167 27.5819 26.9167 28.3333C26.9167 29.0848 26.6181 29.8055 26.0868 30.3368C25.5554 30.8682 24.8348 31.1667 24.0833 31.1667C23.3319 31.1667 22.6112 30.8682 22.0799 30.3368C21.5485 29.8055 21.25 29.0848 21.25 28.3333C21.25 26.7608 22.5108 25.5 24.0833 25.5ZM1.41666 2.83333H6.04916L7.38082 5.66667H28.3333C28.709 5.66667 29.0694 5.81592 29.3351 6.0816C29.6007 6.34728 29.75 6.70761 29.75 7.08333C29.75 7.32417 29.6792 7.565 29.58 7.79167L24.5083 16.9575C24.0267 17.8217 23.0917 18.4167 22.0292 18.4167H11.475L10.2 20.7258L10.1575 20.8958C10.1575 20.9898 10.1948 21.0798 10.2612 21.1463C10.3276 21.2127 10.4177 21.25 10.5117 21.25H26.9167V24.0833H9.91666C9.16521 24.0833 8.44454 23.7848 7.91319 23.2535C7.38183 22.7221 7.08332 22.0014 7.08332 21.25C7.08332 20.7542 7.21082 20.2867 7.42332 19.89L9.34999 16.4192L4.24999 5.66667H1.41666V2.83333ZM9.91666 25.5C10.6681 25.5 11.3888 25.7985 11.9201 26.3299C12.4515 26.8612 12.75 27.5819 12.75 28.3333C12.75 29.0848 12.4515 29.8055 11.9201 30.3368C11.3888 30.8682 10.6681 31.1667 9.91666 31.1667C9.16521 31.1667 8.44454 30.8682 7.91319 30.3368C7.38183 29.8055 7.08332 29.0848 7.08332 28.3333C7.08332 26.7608 8.34416 25.5 9.91666 25.5ZM22.6667 15.5833L26.605 8.5H8.69832L12.0417 15.5833H22.6667Z" fill="black"/>
</svg>
